<?xml version="1.0" encoding="utf-8"?>
<!-- Generator: Adobe Illustrator 24.2.0, SVG Export Plug-In . SVG Version: 6.00 Build 0)  -->
<svg version="1.1" id="图层_1" xmlns="http://www.w3.org/2000/svg" xmlns:xlink="http://www.w3.org/1999/xlink" x="0px" y="0px"
	 viewBox="0 0 815.39 395.96" style="enable-background:new 0 0 815.39 395.96;" xml:space="preserve">
<style type="text/css">
	.st0{fill:url(#SVGID_1_);}
	.st1{fill:url(#SVGID_2_);}
	.st2{fill:url(#SVGID_3_);}
	.st3{fill:url(#SVGID_4_);}
</style>
<g>
	<linearGradient id="SVGID_1_" gradientUnits="userSpaceOnUse" x1="414.7938" y1="406.3367" x2="422.8404" y2="134.0938">
		<stop  offset="0" style="stop-color:#192E63"/>
		<stop  offset="0.6285" style="stop-color:#8A458F"/>
	</linearGradient>
	<path class="st0" d="M547.47,101.41c5.65-15.64,9.93-23.83,12.85-24.55c1.05-0.21,1.85,0.58,2.44,2.37
		c2.75,8.43,0.42,20.34-6.98,35.72c6.24,0.1,11.62-0.3,16.15-1.22c9.92-2,16.43-5.91,19.55-11.71c3.95-6.65,5.12-13.29,3.52-19.91
		c-3.18-8.89-8.03-15.16-14.55-18.82c-6.52-3.65-13.31-4.77-20.35-3.35c-6.26,1.26-11.66,6.44-16.21,15.53
		c-8.06,16.2-14.82,39.69-20.27,70.48c1.8-20.92,4.05-38.6,6.76-53.04l4.19-21.27c0.15-0.98,0.09-1.85-0.16-2.62
		c-1.25-3.56-6.01-4.5-14.27-2.84c-6.09,1.23-11.72,3.46-16.88,6.68c-4.2,2.75-6.93,5.89-8.2,9.41
		c-2.13,26.17-3.54,45.86-4.24,59.07c-0.38,7-0.67,13.54-0.89,19.64c-3.55,19.11-10.01,35.27-19.38,48.48
		c-10.76,15.18-20.93,23.73-30.5,25.67c-9.31,1.88-16.02-3.5-20.15-16.15c-2.71-8.3-4.22-18.18-4.52-29.63
		c-0.3-11.44,0.24-22.79,1.63-34.03c1.39-11.24,3.53-20.8,6.44-28.67c2.9-7.87,6.18-12.18,9.83-12.91c4.65-0.25,7.69,1.85,9.15,6.32
		c2.21,6.77,0.17,17.74-6.1,32.89l-1.75,4.03c5.59,4.32,10.77,6,15.55,5.03c4.34-0.88,8.01-3.49,11-7.84
		c2.99-4.35,4.86-9.83,5.62-16.45c0.76-6.62-0.11-13.77-2.61-21.43c-2-6.13-5.3-11.9-9.89-17.31c-4.59-5.4-10.3-9.49-17.14-12.27
		c-6.84-2.77-14.69-3.26-23.56-1.47c-5.22,1.05-9.95,5.18-14.19,12.36c-4.24,7.19-7.86,15.99-10.86,26.4
		c-3,10.41-5.27,21.29-6.82,32.63c-0.97,7.15-1.63,14.02-1.97,20.62l-0.13,0.03c-4.62,17.68-7.49,28.34-8.63,31.97l-2.39,8.86
		c-8.17,27.25-14.27,41.28-18.26,42.09c-0.56-0.02-0.99-0.48-1.29-1.37c-2.12-6.51-0.1-33.14,6.08-79.87
		c4.12-29.15,6.94-48.52,8.46-58.08c0.96-7,1.45-10.61,1.48-10.82c0.02-0.21-0.05-0.57-0.22-1.08c-0.83-2.55-3.42-4.24-7.77-5.07
		c-4.35-0.82-8.87-0.76-13.57,0.18c-4.18,0.84-7.9,2.45-11.16,4.81c-3.26,2.37-5.09,5.49-5.49,9.38l-2.33,23.14
		c-2.82-3.52-6.48-7.44-11-11.77c-4.52-4.33-9.64-7.89-15.37-10.68c-5.73-2.79-11.73-3.56-17.99-2.29
		c-5.22,1.05-9.83,5.63-13.82,13.72c-3.99,8.09-7.31,18.02-9.96,29.79c-2.65,11.77-4.64,24.02-5.96,36.74
		c-1.32,12.73-1.89,24.49-1.7,35.28c0.18,10.78,1.19,18.99,3.02,24.61c3.04,9.33,7.11,16.54,12.2,21.64
		c5.1,5.1,10.44,8.48,16.03,10.15c5.6,1.66,10.66,2.03,15.18,1.12c6.18-1.25,13.85-15.8,23.03-43.66c0.25,4.17,0.73,7.34,1.43,9.51
		c3.29,10.09,7.43,16.82,12.42,20.17c4.99,3.35,11.79,4.16,20.4,2.42c3.56-0.72,7.09-4.7,10.57-11.94
		c6.28-12.22,12.6-30.68,18.97-55.37c0.12,0.41,0.23,0.83,0.36,1.22c2.63,8.05,6.91,16.14,12.85,24.27
		c5.94,8.13,12.76,14.61,20.46,19.46c7.7,4.85,15.5,6.47,23.42,4.87c11.4-2.3,21.47-8.93,30.23-19.89
		c8.37-10.48,15.33-23.24,20.87-38.25c0.5,6.57,1.29,11.53,2.38,14.87c2.04,6.26,5.67,11.62,10.88,16.08
		c5.21,4.46,10.29,7.73,15.22,9.79c4.94,2.07,8.76,2.83,11.45,2.28l0.39-0.08c1.96-0.54,2.56-1.95,1.81-4.25
		c-2.25-6.9-3.88-12.9-4.9-18.01c-0.62-21.52,1.16-43.29,5.34-65.31C536.9,135.88,541.81,117.05,547.47,101.41z M318.09,222.79
		c-2.07,5.59-4.63,11.96-7.67,19.12c-3.04,7.15-6.13,13.59-9.27,19.33c-3.14,5.74-5.83,8.84-8.1,9.29
		c-0.87,0.18-1.67-0.88-2.43-3.18c-1.25-3.83-2.19-10.39-2.8-19.66c-0.61-9.27-0.85-19.6-0.72-31c0.13-11.39,0.75-22.44,1.85-33.15
		c1.1-10.71,2.63-19.73,4.59-27.08c1.96-7.34,4.51-11.33,7.64-11.96c6.96-1.41,14.29,1.47,22.01,8.63
		C320.76,176.09,319.06,199.31,318.09,222.79z"/>
	<linearGradient id="SVGID_2_" gradientUnits="userSpaceOnUse" x1="697.6337" y1="414.6965" x2="705.6803" y2="142.4536">
		<stop  offset="0" style="stop-color:#192E63"/>
		<stop  offset="0.6285" style="stop-color:#8A458F"/>
	</linearGradient>
	<path class="st1" d="M619.83,192.6c5.32,5.94,10.87,10.51,16.63,13.7c5.77,3.19,11.19,5.3,16.25,6.32
		c5.06,1.02,8.81,1.28,11.25,0.79c12.26-2.48,22.07-12.49,29.42-30.04l2.28-0.26c7.22-1.46,13.41-6.21,18.58-14.27
		c5.16-8.05,9.39-17.9,12.69-29.53c3.3-11.63,5.71-23.65,7.22-36.08l-0.12,0.02c1.62-8.34,3.12-15.33,4.5-20.93
		c1.7-6.88,4.11-13.63,7.23-20.25c-0.03,2.46,0.68,5.92,2.14,10.4c2.29,7.03,7.65,19.7,16.08,38.01
		c8.43,18.32,13.83,31.11,16.2,38.39c1.75,5.37,2.26,10.48,1.52,15.32c-0.74,4.85-2.27,8.91-4.59,12.16c-2.32,3.26-5,5.2-8.05,5.82
		c-4.53,0.91-9.06,0.16-13.6-2.26c-4.54-2.42-7.65-6.18-9.31-11.29c-0.74-2.84-0.2-4.45,1.63-4.82c1.48-0.3,3.57-0.14,6.27,0.47
		c2.7,0.61,5.23,0.68,7.58,0.21c3.56-0.72,5.74-3.44,6.52-8.16c0.78-4.72,0.36-9.57-1.27-14.55c-1.38-4.22-3.55-7.83-6.52-10.84
		c-2.98-3.01-6.55-4.09-10.73-3.25c-6,1.21-10.7,4.21-14.11,8.98c-3.4,4.77-5.47,10.37-6.21,16.78c-0.74,6.41-0.17,12.49,1.71,18.24
		c1.92,5.88,5.14,11.29,9.67,16.23c4.53,4.94,9.99,8.67,16.38,11.2c6.38,2.52,13.23,3.05,20.54,1.57
		c25.88-8.77,36.53-28.41,31.96-58.95c-0.77-4.06-1.84-8.2-3.22-12.42c-2.62-8.05-6.07-16.34-10.33-24.87
		c-4.27-8.54-8.64-16.84-13.13-24.93c-3.65-6.61-6.94-12.83-9.9-18.63c-2.96-5.8-5.15-10.87-6.56-15.22
		c-1.59-4.85-1.98-8.55-1.18-11.1c0.79-2.54,2.15-4.01,4.06-4.4c2.78-0.56,5.96,0.87,9.54,4.31c3.57,3.43,6.28,7.96,8.11,13.57
		c0.92,2.81,2.59,4.89,5.03,6.24c2.43,1.34,4.86,1.77,7.3,1.28c2.87-0.58,5.16-2.58,6.88-5.99c1.72-3.41,1.51-8.37-0.61-14.89
		c-2.46-7.54-7.18-13.76-14.16-18.69c-6.98-4.92-13.47-6.78-19.48-5.56c-2.95,0.6-6.47,1.89-10.55,3.87
		c-4.08,1.98-8.4,6.09-12.95,12.32c-4.55,6.23-9.06,15.72-13.53,28.47c-4.46,12.75-8.71,30.01-12.73,51.8l-0.65,4.42l0.6-0.11
		c-3.42,20.72-10.51,36.86-21.29,48.41c3.01-14.09,4.42-28.26,4.22-42.52c-0.2-14.26-1.82-26.05-4.87-35.37
		c-3.12-9.58-7.98-17.52-14.58-23.81c-6.6-6.29-13.74-10.8-21.45-13.54c-7.7-2.73-14.69-3.47-20.95-2.2
		c-6.26,1.27-12.54,5.77-18.82,13.5c-6.29,7.74-11.58,17.59-15.88,29.56c-4.3,11.97-6.81,25.24-7.53,39.81
		c-0.71,14.58,1.41,29.47,6.36,44.68C610.33,179.03,614.51,186.66,619.83,192.6z M639.48,111.93c1.52-13.24,3.78-24.66,6.77-34.25
		c2.99-9.59,6.57-14.81,10.75-15.65c5.47-0.56,9.69,3.7,12.65,12.76c3.16,9.71,4.3,22.73,3.41,39.04
		c-0.89,16.31-3.19,31.45-6.89,45.41c-0.02,2.38-4.57,15.24-4.57,15.24c-0.56,1.85-4.23,6.91-6.64,10.11
		c-1.81,2.14-3.63,3.39-5.45,3.75c-3.57,0.72-6.35-1.98-8.35-8.12c-2.25-6.9-3.47-16.69-3.67-29.39
		C637.3,138.14,637.96,125.18,639.48,111.93z"/>
	<linearGradient id="SVGID_3_" gradientUnits="userSpaceOnUse" x1="129.0027" y1="397.8897" x2="137.0493" y2="125.6468">
		<stop  offset="0" style="stop-color:#192E63"/>
		<stop  offset="0.6285" style="stop-color:#8A458F"/>
	</linearGradient>
	<path class="st2" d="M255.33,308.38l-0.88-2.27c-2.02-4.49-4.16-10.19-6.41-17.09c-11.58-35.52-18.27-75.36-20.06-119.52
		c-0.65-19.34-0.91-36.2-0.79-50.6c0.13-14.39,1.38-27.75,3.76-40.08c2.38-12.33,4.92-18.76,7.61-19.31
		c0.25-2.37,0.1-4.38-0.44-6.04c-1.25-3.83-4.13-6.21-8.65-7.14c-4.52-0.92-9.09-0.92-13.69,0.01c-3.48,0.7-6.54,1.76-9.18,3.18
		c-2.65,1.42-4.25,3.04-4.82,4.85c-0.57,1.82-1.66,4.93-3.28,9.35c-12.23,32.15-22.69,67.9-31.37,107.23
		c-2.36-30.57-3.36-54.67-3-72.31c-0.03-7.76-0.13-14.27-0.32-19.54c-0.19-5.27-0.72-9.25-1.6-11.94
		c-2.38-7.28-7.39-11.85-15.04-13.71c-5.71-1.3-11.17-1.42-16.39-0.36c-3.74,0.76-7.38,7.86-10.92,21.3
		c-3.55,13.44-7.45,30.54-11.72,51.28c-3.34,16.47-7.21,34.07-11.58,52.79c-4.37,18.73-9.42,37.21-15.15,55.46
		c-5.73,18.25-12.31,35.17-19.75,50.76c-7.43,15.6-15.87,28.6-25.31,39.02c-9.44,10.42-20.25,16.86-32.43,19.31l1.06,3.67
		c3.13,9.58,7.27,17.25,12.44,23.02c5.17,5.76,10.69,10.03,16.55,12.8c5.86,2.76,11.49,4.39,16.88,4.86
		c5.39,0.48,9.96,0.34,13.7-0.42c4.61-0.93,10-11.04,16.18-30.33c6.18-19.29,12.47-42.65,18.87-70.09
		c6.39-27.44,12.38-54.72,17.95-81.85c5.57-27.14,10.02-50.09,13.35-68.88l5.25-27.82l-0.44,13.16c-0.16,8.89,0.21,26.1,1.13,51.65
		c0.91,25.55,1.64,43.99,2.18,55.32c0.54,11.33,1.6,19.83,3.17,25.5c1.62,4.99,4.58,9.43,8.87,13.33c4.28,3.9,8.78,6.81,13.48,8.71
		c4.7,1.91,8.49,2.58,11.36,2l2.03-0.61l0.14-0.44c2.02-1.5,2.13-4.99,0.34-10.48c0.68-18.11,3.62-41.35,8.84-69.7
		c5.22-28.35,10.87-52.81,16.96-73.38l2.48-5.61c-1.56,51.52-1.66,91.43-0.3,119.76c0.8,21.49,2.35,36.77,4.65,45.83
		c1.62,4.99,5.21,10.16,10.76,15.5c5.54,5.35,11.84,10.51,18.89,15.49c7.05,4.98,12.14,7.15,15.27,6.52c2.22-0.59,2.7-2.8,1.45-6.63
		C256.78,311.97,256.09,310.13,255.33,308.38z"/>
	<linearGradient id="SVGID_4_" gradientUnits="userSpaceOnUse" x1="673.1721" y1="413.9735" x2="681.2186" y2="141.7306">
		<stop  offset="0" style="stop-color:#192E63"/>
		<stop  offset="0.6285" style="stop-color:#8A458F"/>
	</linearGradient>
	<path class="st3" d="M800.31,220.38l-247.05,44c-8.32,1.48-15.08,9.43-15.08,17.75v68.59c0,8.33,6.76,13.87,15.08,12.39l247.05-44
		c8.33-1.48,15.08-9.43,15.08-17.76v-68.59C815.39,224.44,808.65,218.89,800.31,220.38z M634.04,279.03
		c-0.82,3.45-1.88,7.34-3.18,11.68c-1.31,4.35-2.76,8.88-4.36,13.6c-1.6,4.73-3.2,9.22-4.79,13.49c-1.6,4.26-3.12,8.02-4.56,11.28
		c-1.44,3.26-2.57,5.54-3.42,6.87c-1.11,1.11-2.81,2.23-5.08,3.35c-2.29,1.13-4.8,1.93-7.54,2.42c-3.33,0.59-6.17,0.61-8.52,0.06
		c-2.35-0.56-3.95-1.61-4.79-3.17c-0.85-1.67-1.92-3.83-3.18-6.48c-1.27-2.64-2.61-5.6-3.97-8.88c-1.37-3.29-2.77-6.78-4.21-10.46
		c-1.44-3.69-2.82-7.47-4.16-11.31c-1.33-3.83-2.59-7.61-3.76-11.32c-1.18-3.7-2.19-7.17-3.04-10.42c1.11-1.3,2.69-2.59,4.74-3.87
		c2.06-1.28,4.27-2.14,6.6-2.55c2.95-0.52,5.33-0.34,7.15,0.54c1.82,0.89,3.17,2.92,4.01,6.1c2.16,7.25,4.31,14.19,6.46,20.82
		c2.16,6.63,4.41,13.56,6.76,20.77l0.69-0.12c2.08-7.75,4.25-16.17,6.5-25.28c2.26-9.12,4.39-18.16,6.42-27.13
		c1.44-0.91,2.96-1.75,4.56-2.53c1.6-0.76,3.4-1.34,5.43-1.7c2.86-0.51,5.33-0.29,7.39,0.65c2.06,0.94,3.07,2.88,3.07,5.81
		C635.25,272.99,634.86,275.6,634.04,279.03z M716.26,293.81c0,4.24-0.71,8.24-2.15,11.99c-1.44,3.74-3.53,7.09-6.26,10.02
		c-2.75,2.93-6.07,5.42-9.98,7.46c-3.92,2.03-8.36,3.49-13.31,4.37c-4.97,0.88-9.4,1.01-13.31,0.37c-3.92-0.65-7.25-1.95-9.99-3.9
		c-2.73-1.96-4.83-4.56-6.26-7.79c-1.44-3.24-2.15-6.98-2.15-11.22v-45.32c0.91-0.35,2.28-0.83,4.11-1.41
		c1.82-0.58,3.62-1.04,5.38-1.35c3.92-0.7,6.74-0.52,8.47,0.5c1.73,1.04,2.59,3.48,2.59,7.32v36.22c0,3.79,1.04,6.55,3.13,8.3
		c2.08,1.74,4.76,2.33,8.03,1.75c3.26-0.58,5.94-2.12,8.02-4.61c2.09-2.5,3.13-5.63,3.13-9.42v-44.94c0.92-0.35,2.29-0.83,4.11-1.41
		c1.82-0.58,3.62-1.04,5.39-1.36c3.92-0.7,6.73-0.52,8.46,0.5c1.73,1.04,2.59,3.48,2.59,7.32V293.81z M786.24,306.11
		c-1.24,1.53-2.97,2.49-5.18,2.89l-34.27,6.1c-3.39,0.6-6.07,0.1-8.03-1.52c-1.95-1.6-2.93-4.11-2.93-7.49v-49.64
		c0-3.39,0.98-6.24,2.93-8.54c1.96-2.31,4.64-3.77,8.03-4.38l38.77-6.9c0.51,0.76,0.99,1.77,1.41,3.03
		c0.42,1.27,0.63,2.72,0.63,4.34c0,2.93-0.62,5.18-1.85,6.75c-1.25,1.55-2.98,2.53-5.19,2.92l-24.77,4.41v10.87l26.42-4.71
		c0.53,0.76,1.02,1.76,1.47,3.02c0.46,1.25,0.68,2.7,0.68,4.33c0,2.93-0.63,5.15-1.91,6.65c-1.27,1.5-2.99,2.44-5.14,2.82
		l-21.53,3.83v12.33l30.14-5.37c0.6,0.82,1.1,1.88,1.52,3.21c0.42,1.33,0.63,2.81,0.63,4.43
		C788.1,302.39,787.48,304.59,786.24,306.11z"/>
</g>
</svg>
