<svg xmlns="http://www.w3.org/2000/svg" xml:space="preserve" style="enable-background:new 0 0 815.39 395.96" viewBox="0 0 815.39 395.96"><linearGradient id="a" x1="414.794" x2="422.84" y1="406.337" y2="134.094" gradientUnits="userSpaceOnUse"><stop offset="0" style="stop-color:#192e63"/><stop offset=".628" style="stop-color:#8a458f"/></linearGradient><path d="M547.47 101.41c5.65-15.64 9.93-23.83 12.85-24.55 1.05-.21 1.85.58 2.44 2.37 2.75 8.43.42 20.34-6.98 35.72 6.24.1 11.62-.3 16.15-1.22 9.92-2 16.43-5.91 19.55-11.71 3.95-6.65 5.12-13.29 3.52-19.91-3.18-8.89-8.03-15.16-14.55-18.82-6.52-3.65-13.31-4.77-20.35-3.35-6.26 1.26-11.66 6.44-16.21 15.53-8.06 16.2-14.82 39.69-20.27 70.48 1.8-20.92 4.05-38.6 6.76-53.04l4.19-21.27c.15-.98.09-1.85-.16-2.62-1.25-3.56-6.01-4.5-14.27-2.84-6.09 1.23-11.72 3.46-16.88 6.68-4.2 2.75-6.93 5.89-8.2 9.41-2.13 26.17-3.54 45.86-4.24 59.07-.38 7-.67 13.54-.89 19.64-3.55 19.11-10.01 35.27-19.38 48.48-10.76 15.18-20.93 23.73-30.5 25.67-9.31 1.88-16.02-3.5-20.15-16.15-2.71-8.3-4.22-18.18-4.52-29.63-.3-11.44.24-22.79 1.63-34.03 1.39-11.24 3.53-20.8 6.44-28.67 2.9-7.87 6.18-12.18 9.83-12.91 4.65-.25 7.69 1.85 9.15 6.32 2.21 6.77.17 17.74-6.1 32.89l-1.75 4.03c5.59 4.32 10.77 6 15.55 5.03 4.34-.88 8.01-3.49 11-7.84s4.86-9.83 5.62-16.45c.76-6.62-.11-13.77-2.61-21.43-2-6.13-5.3-11.9-9.89-17.31-4.59-5.4-10.3-9.49-17.14-12.27-6.84-2.77-14.69-3.26-23.56-1.47-5.22 1.05-9.95 5.18-14.19 12.36-4.24 7.19-7.86 15.99-10.86 26.4-3 10.41-5.27 21.29-6.82 32.63-.97 7.15-1.63 14.02-1.97 20.62l-.13.03c-4.62 17.68-7.49 28.34-8.63 31.97l-2.39 8.86c-8.17 27.25-14.27 41.28-18.26 42.09-.56-.02-.99-.48-1.29-1.37-2.12-6.51-.1-33.14 6.08-79.87 4.12-29.15 6.94-48.52 8.46-58.08.96-7 1.45-10.61 1.48-10.82.02-.21-.05-.57-.22-1.08-.83-2.55-3.42-4.24-7.77-5.07-4.35-.82-8.87-.76-13.57.18-4.18.84-7.9 2.45-11.16 4.81-3.26 2.37-5.09 5.49-5.49 9.38l-2.33 23.14c-2.82-3.52-6.48-7.44-11-11.77-4.52-4.33-9.64-7.89-15.37-10.68-5.73-2.79-11.73-3.56-17.99-2.29-5.22 1.05-9.83 5.63-13.82 13.72s-7.31 18.02-9.96 29.79c-2.65 11.77-4.64 24.02-5.96 36.74-1.32 12.73-1.89 24.49-1.7 35.28.18 10.78 1.19 18.99 3.02 24.61 3.04 9.33 7.11 16.54 12.2 21.64 5.1 5.1 10.44 8.48 16.03 10.15 5.6 1.66 10.66 2.03 15.18 1.12 6.18-1.25 13.85-15.8 23.03-43.66.25 4.17.73 7.34 1.43 9.51 3.29 10.09 7.43 16.82 12.42 20.17 4.99 3.35 11.79 4.16 20.4 2.42 3.56-.72 7.09-4.7 10.57-11.94 6.28-12.22 12.6-30.68 18.97-55.37.12.41.23.83.36 1.22 2.63 8.05 6.91 16.14 12.85 24.27 5.94 8.13 12.76 14.61 20.46 19.46 7.7 4.85 15.5 6.47 23.42 4.87 11.4-2.3 21.47-8.93 30.23-19.89 8.37-10.48 15.33-23.24 20.87-38.25.5 6.57 1.29 11.53 2.38 14.87 2.04 6.26 5.67 11.62 10.88 16.08 5.21 4.46 10.29 7.73 15.22 9.79 4.94 2.07 8.76 2.83 11.45 2.28l.39-.08c1.96-.54 2.56-1.95 1.81-4.25-2.25-6.9-3.88-12.9-4.9-18.01-.62-21.52 1.16-43.29 5.34-65.31 4.2-22.03 9.11-40.86 14.77-56.5zM318.09 222.79c-2.07 5.59-4.63 11.96-7.67 19.12-3.04 7.15-6.13 13.59-9.27 19.33-3.14 5.74-5.83 8.84-8.1 9.29-.87.18-1.67-.88-2.43-3.18-1.25-3.83-2.19-10.39-2.8-19.66-.61-9.27-.85-19.6-.72-31 .13-11.39.75-22.44 1.85-33.15 1.1-10.71 2.63-19.73 4.59-27.08 1.96-7.34 4.51-11.33 7.64-11.96 6.96-1.41 14.29 1.47 22.01 8.63-2.43 22.96-4.13 46.18-5.1 69.66z" style="fill:url(#a)"/><linearGradient id="b" x1="697.634" x2="705.68" y1="414.697" y2="142.454" gradientUnits="userSpaceOnUse"><stop offset="0" style="stop-color:#192e63"/><stop offset=".628" style="stop-color:#8a458f"/></linearGradient><path d="M619.83 192.6c5.32 5.94 10.87 10.51 16.63 13.7 5.77 3.19 11.19 5.3 16.25 6.32 5.06 1.02 8.81 1.28 11.25.79 12.26-2.48 22.07-12.49 29.42-30.04l2.28-.26c7.22-1.46 13.41-6.21 18.58-14.27 5.16-8.05 9.39-17.9 12.69-29.53 3.3-11.63 5.71-23.65 7.22-36.08l-.12.02c1.62-8.34 3.12-15.33 4.5-20.93 1.7-6.88 4.11-13.63 7.23-20.25-.03 2.46.68 5.92 2.14 10.4 2.29 7.03 7.65 19.7 16.08 38.01 8.43 18.32 13.83 31.11 16.2 38.39 1.75 5.37 2.26 10.48 1.52 15.32-.74 4.85-2.27 8.91-4.59 12.16-2.32 3.26-5 5.2-8.05 5.82-4.53.91-9.06.16-13.6-2.26-4.54-2.42-7.65-6.18-9.31-11.29-.74-2.84-.2-4.45 1.63-4.82 1.48-.3 3.57-.14 6.27.47 2.7.61 5.23.68 7.58.21 3.56-.72 5.74-3.44 6.52-8.16.78-4.72.36-9.57-1.27-14.55-1.38-4.22-3.55-7.83-6.52-10.84-2.98-3.01-6.55-4.09-10.73-3.25-6 1.21-10.7 4.21-14.11 8.98-3.4 4.77-5.47 10.37-6.21 16.78-.74 6.41-.17 12.49 1.71 18.24 1.92 5.88 5.14 11.29 9.67 16.23 4.53 4.94 9.99 8.67 16.38 11.2 6.38 2.52 13.23 3.05 20.54 1.57 25.88-8.77 36.53-28.41 31.96-58.95-.77-4.06-1.84-8.2-3.22-12.42-2.62-8.05-6.07-16.34-10.33-24.87-4.27-8.54-8.64-16.84-13.13-24.93-3.65-6.61-6.94-12.83-9.9-18.63-2.96-5.8-5.15-10.87-6.56-15.22-1.59-4.85-1.98-8.55-1.18-11.1.79-2.54 2.15-4.01 4.06-4.4 2.78-.56 5.96.87 9.54 4.31 3.57 3.43 6.28 7.96 8.11 13.57.92 2.81 2.59 4.89 5.03 6.24 2.43 1.34 4.86 1.77 7.3 1.28 2.87-.58 5.16-2.58 6.88-5.99 1.72-3.41 1.51-8.37-.61-14.89-2.46-7.54-7.18-13.76-14.16-18.69-6.98-4.92-13.47-6.78-19.48-5.56-2.95.6-6.47 1.89-10.55 3.87-4.08 1.98-8.4 6.09-12.95 12.32-4.55 6.23-9.06 15.72-13.53 28.47-4.46 12.75-8.71 30.01-12.73 51.8l-.65 4.42.6-.11c-3.42 20.72-10.51 36.86-21.29 48.41 3.01-14.09 4.42-28.26 4.22-42.52-.2-14.26-1.82-26.05-4.87-35.37-3.12-9.58-7.98-17.52-14.58-23.81-6.6-6.29-13.74-10.8-21.45-13.54-7.7-2.73-14.69-3.47-20.95-2.2s-12.54 5.77-18.82 13.5c-6.29 7.74-11.58 17.59-15.88 29.56-4.3 11.97-6.81 25.24-7.53 39.81-.71 14.58 1.41 29.47 6.36 44.68 3.01 9.31 7.19 16.94 12.51 22.88zm19.65-80.67c1.52-13.24 3.78-24.66 6.77-34.25 2.99-9.59 6.57-14.81 10.75-15.65 5.47-.56 9.69 3.7 12.65 12.76 3.16 9.71 4.3 22.73 3.41 39.04-.89 16.31-3.19 31.45-6.89 45.41-.02 2.38-4.57 15.24-4.57 15.24-.56 1.85-4.23 6.91-6.64 10.11-1.81 2.14-3.63 3.39-5.45 3.75-3.57.72-6.35-1.98-8.35-8.12-2.25-6.9-3.47-16.69-3.67-29.39-.19-12.69.47-25.65 1.99-38.9z" style="fill:url(#b)"/><linearGradient id="c" x1="129.003" x2="137.049" y1="397.89" y2="125.647" gradientUnits="userSpaceOnUse"><stop offset="0" style="stop-color:#192e63"/><stop offset=".628" style="stop-color:#8a458f"/></linearGradient><path d="m255.33 308.38-.88-2.27c-2.02-4.49-4.16-10.19-6.41-17.09-11.58-35.52-18.27-75.36-20.06-119.52-.65-19.34-.91-36.2-.79-50.6.13-14.39 1.38-27.75 3.76-40.08 2.38-12.33 4.92-18.76 7.61-19.31.25-2.37.1-4.38-.44-6.04-1.25-3.83-4.13-6.21-8.65-7.14-4.52-.92-9.09-.92-13.69.01-3.48.7-6.54 1.76-9.18 3.18-2.65 1.42-4.25 3.04-4.82 4.85-.57 1.82-1.66 4.93-3.28 9.35-12.23 32.15-22.69 67.9-31.37 107.23-2.36-30.57-3.36-54.67-3-72.31-.03-7.76-.13-14.27-.32-19.54s-.72-9.25-1.6-11.94c-2.38-7.28-7.39-11.85-15.04-13.71-5.71-1.3-11.17-1.42-16.39-.36-3.74.76-7.38 7.86-10.92 21.3-3.55 13.44-7.45 30.54-11.72 51.28-3.34 16.47-7.21 34.07-11.58 52.79a766.233 766.233 0 0 1-15.15 55.46c-5.73 18.25-12.31 35.17-19.75 50.76-7.43 15.6-15.87 28.6-25.31 39.02-9.44 10.42-20.25 16.86-32.43 19.31l1.06 3.67c3.13 9.58 7.27 17.25 12.44 23.02 5.17 5.76 10.69 10.03 16.55 12.8 5.86 2.76 11.49 4.39 16.88 4.86 5.39.48 9.96.34 13.7-.42 4.61-.93 10-11.04 16.18-30.33s12.47-42.65 18.87-70.09a3186.4 3186.4 0 0 0 17.95-81.85c5.57-27.14 10.02-50.09 13.35-68.88l5.25-27.82-.44 13.16c-.16 8.89.21 26.1 1.13 51.65.91 25.55 1.64 43.99 2.18 55.32.54 11.33 1.6 19.83 3.17 25.5 1.62 4.99 4.58 9.43 8.87 13.33 4.28 3.9 8.78 6.81 13.48 8.71 4.7 1.91 8.49 2.58 11.36 2l2.03-.61.14-.44c2.02-1.5 2.13-4.99.34-10.48.68-18.11 3.62-41.35 8.84-69.7s10.87-52.81 16.96-73.38l2.48-5.61c-1.56 51.52-1.66 91.43-.3 119.76.8 21.49 2.35 36.77 4.65 45.83 1.62 4.99 5.21 10.16 10.76 15.5 5.54 5.35 11.84 10.51 18.89 15.49 7.05 4.98 12.14 7.15 15.27 6.52 2.22-.59 2.7-2.8 1.45-6.63-.63-1.92-1.32-3.76-2.08-5.51z" style="fill:url(#c)"/><linearGradient id="d" x1="673.172" x2="681.219" y1="413.974" y2="141.731" gradientUnits="userSpaceOnUse"><stop offset="0" style="stop-color:#192e63"/><stop offset=".628" style="stop-color:#8a458f"/></linearGradient><path d="m800.31 220.38-247.05 44c-8.32 1.48-15.08 9.43-15.08 17.75v68.59c0 8.33 6.76 13.87 15.08 12.39l247.05-44c8.33-1.48 15.08-9.43 15.08-17.76v-68.59c0-8.32-6.74-13.87-15.08-12.38zm-166.27 58.65c-.82 3.45-1.88 7.34-3.18 11.68a416.41 416.41 0 0 1-4.36 13.6c-1.6 4.73-3.2 9.22-4.79 13.49-1.6 4.26-3.12 8.02-4.56 11.28-1.44 3.26-2.57 5.54-3.42 6.87-1.11 1.11-2.81 2.23-5.08 3.35-2.29 1.13-4.8 1.93-7.54 2.42-3.33.59-6.17.61-8.52.06-2.35-.56-3.95-1.61-4.79-3.17-.85-1.67-1.92-3.83-3.18-6.48-1.27-2.64-2.61-5.6-3.97-8.88-1.37-3.29-2.77-6.78-4.21-10.46-1.44-3.69-2.82-7.47-4.16-11.31a415.94 415.94 0 0 1-3.76-11.32c-1.18-3.7-2.19-7.17-3.04-10.42 1.11-1.3 2.69-2.59 4.74-3.87 2.06-1.28 4.27-2.14 6.6-2.55 2.95-.52 5.33-.34 7.15.54 1.82.89 3.17 2.92 4.01 6.1 2.16 7.25 4.31 14.19 6.46 20.82 2.16 6.63 4.41 13.56 6.76 20.77l.69-.12c2.08-7.75 4.25-16.17 6.5-25.28 2.26-9.12 4.39-18.16 6.42-27.13 1.44-.91 2.96-1.75 4.56-2.53 1.6-.76 3.4-1.34 5.43-1.7 2.86-.51 5.33-.29 7.39.65 2.06.94 3.07 2.88 3.07 5.81-.01 1.74-.4 4.35-1.22 7.78zm82.22 14.78c0 4.24-.71 8.24-2.15 11.99a30.832 30.832 0 0 1-6.26 10.02c-2.75 2.93-6.07 5.42-9.98 7.46-3.92 2.03-8.36 3.49-13.31 4.37-4.97.88-9.4 1.01-13.31.37-3.92-.65-7.25-1.95-9.99-3.9-2.73-1.96-4.83-4.56-6.26-7.79-1.44-3.24-2.15-6.98-2.15-11.22v-45.32c.91-.35 2.28-.83 4.11-1.41 1.82-.58 3.62-1.04 5.38-1.35 3.92-.7 6.74-.52 8.47.5 1.73 1.04 2.59 3.48 2.59 7.32v36.22c0 3.79 1.04 6.55 3.13 8.3 2.08 1.74 4.76 2.33 8.03 1.75 3.26-.58 5.94-2.12 8.02-4.61 2.09-2.5 3.13-5.63 3.13-9.42v-44.94c.92-.35 2.29-.83 4.11-1.41 1.82-.58 3.62-1.04 5.39-1.36 3.92-.7 6.73-.52 8.46.5 1.73 1.04 2.59 3.48 2.59 7.32v36.61zm69.98 12.3c-1.24 1.53-2.97 2.49-5.18 2.89l-34.27 6.1c-3.39.6-6.07.1-8.03-1.52-1.95-1.6-2.93-4.11-2.93-7.49v-49.64c0-3.39.98-6.24 2.93-8.54 1.96-2.31 4.64-3.77 8.03-4.38l38.77-6.9c.51.76.99 1.77 1.41 3.03.42 1.27.63 2.72.63 4.34 0 2.93-.62 5.18-1.85 6.75-1.25 1.55-2.98 2.53-5.19 2.92l-24.77 4.41v10.87l26.42-4.71c.53.76 1.02 1.76 1.47 3.02.46 1.25.68 2.7.68 4.33 0 2.93-.63 5.15-1.91 6.65-1.27 1.5-2.99 2.44-5.14 2.82l-21.53 3.83v12.33l30.14-5.37c.6.82 1.1 1.88 1.52 3.21.42 1.33.63 2.81.63 4.43.03 2.9-.59 5.1-1.83 6.62z" style="fill:url(#d)"/></svg>