<?xml version="1.0" encoding="utf-8"?>
<!-- Generator: Adobe Illustrator 24.2.0, SVG Export Plug-In . SVG Version: 6.00 Build 0)  -->
<svg version="1.1" id="图层_1" xmlns="http://www.w3.org/2000/svg" xmlns:xlink="http://www.w3.org/1999/xlink" x="0px" y="0px"
	 viewBox="0 0 880.77 827.54" style="enable-background:new 0 0 880.77 827.54;" xml:space="preserve">
<style type="text/css">
	.st0{fill:url(#SVGID_1_);}
</style>
<linearGradient id="SVGID_1_" gradientUnits="userSpaceOnUse" x1="76.0489" y1="209.6664" x2="781.5226" y2="626.6028">
	<stop  offset="0" style="stop-color:#1D2D69"/>
	<stop  offset="0.6285" style="stop-color:#924797"/>
</linearGradient>
<path class="st0" d="M375.08,676.05c0.23,2.95,0.37,5.23,0.42,6.85c-1.17,0.67-2.37,1.16-3.59,1.46c-1.23,0.31-2.81,0.46-4.76,0.46
	c-2.51,0-4.64-0.43-6.39-1.29c-1.76-0.87-2.69-2.58-2.8-5.14c-0.39-7.3-0.64-13.84-0.75-19.64c-0.12-5.79-0.28-10.66-0.51-14.62
	h-0.5c-0.67,2.62-1.63,5.89-2.88,9.82c-1.25,3.93-2.8,8.98-4.64,15.16c-0.83,0.73-1.93,1.3-3.3,1.72c-1.36,0.41-2.96,0.62-4.8,0.62
	c-2.4,0-4.37-0.29-5.93-0.87c-1.56-0.59-2.59-1.63-3.09-3.14c-1.84-5.85-3.38-10.59-4.6-14.24c-1.23-3.65-2.17-6.84-2.84-9.57h-0.5
	c-0.17,3.96-0.31,7.55-0.42,10.78c-0.11,3.23-0.18,6.38-0.21,9.44c-0.03,3.06-0.1,6.17-0.21,9.32c-0.11,3.14-0.25,6.64-0.41,10.48
	c-0.9,0.34-2.04,0.61-3.43,0.84c-1.39,0.22-2.79,0.33-4.18,0.33c-2.95,0-5.25-0.47-6.89-1.42c-1.64-0.95-2.46-2.64-2.46-5.1
	c0-2.06,0.09-5.08,0.29-9.06c0.19-3.98,0.44-8.38,0.75-13.2c0.3-4.82,0.63-9.76,0.96-14.83c0.33-5.07,0.64-9.75,0.92-14.04
	c0.5-0.89,1.66-1.84,3.47-2.84s4.35-1.5,7.64-1.5c3.56,0,6.35,0.56,8.36,1.67c2,1.11,3.45,2.9,4.34,5.35
	c0.61,1.61,1.27,3.46,1.96,5.55c0.7,2.09,1.41,4.24,2.13,6.43c0.73,2.21,1.42,4.39,2.09,6.56c0.67,2.18,1.26,4.13,1.76,5.85h0.5
	c1.61-5.62,3.23-11.05,4.84-16.29c1.62-5.23,3.1-9.64,4.43-13.2c1.01-0.5,2.29-0.95,3.85-1.34c1.55-0.39,3.31-0.58,5.26-0.58
	c3.29,0,5.96,0.49,8.02,1.46c2.06,0.98,3.26,2.38,3.59,4.22c0.28,1.34,0.57,3.38,0.88,6.14c0.3,2.76,0.63,5.88,0.96,9.36
	c0.34,3.48,0.67,7.15,1,11.03c0.34,3.87,0.64,7.6,0.92,11.19C374.61,669.82,374.86,673.1,375.08,676.05z M757.44,652.86
	c-1.76-1.86-4.14-2.8-7.15-2.8c-3,0-5.37,0.94-7.1,2.8c-1.72,1.87-2.59,4.2-2.59,6.98c0,2.84,0.87,5.19,2.59,7.06
	c1.73,1.87,4.1,2.8,7.1,2.8c3.01,0,5.39-0.93,7.15-2.8c1.75-1.87,2.63-4.22,2.63-7.06C760.07,657.06,759.19,654.73,757.44,652.86z
	 M551.48,214.28l16.98,2.15c1.39,0,2.53,1.13,2.53,2.52l2.25,16.78c0,1.39,1.12,2.52,2.51,2.52c0.01,0,0.01,0,0.02,0
	c1.39,0,2.52-1.14,2.52-2.53l2.15-16.79c0-1.4,1.12-2.53,2.52-2.54l16.97-2.24c1.39-0.01,2.52-1.14,2.51-2.53v-0.38
	c0-1.39-1.13-2.52-2.53-2.52l-16.98-2.15c-1.39,0-2.53-1.12-2.53-2.52l-2.25-16.78c0-0.69-0.29-1.33-0.74-1.78
	c-0.46-0.46-1.09-0.74-1.79-0.74c-1.39,0.01-2.52,1.14-2.52,2.53l-2.15,16.8c0,1.39-1.13,2.53-2.52,2.53l-16.97,2.25
	c-1.39,0-2.52,1.13-2.52,2.53v0.37C548.95,213.16,550.08,214.28,551.48,214.28z M677.96,255.28v0.3c0.01,1.11,0.91,2.01,2.02,2
	l13.52,1.72c1.11-0.01,2.01,0.89,2.01,2l1.79,13.36c0,0.56,0.23,1.06,0.59,1.42c0.37,0.36,0.87,0.59,1.43,0.59
	c1.11-0.01,2.01-0.91,2-2.02l1.72-13.37c-0.01-1.11,0.89-2.01,2-2.02l13.51-1.78c1.11-0.01,2.01-0.91,2.01-2.02l-0.01-0.3
	c0-1.11-0.9-2.01-2.01-2l-13.52-1.72c-1.11,0.01-2.01-0.89-2.02-2l-1.78-13.36c0-0.56-0.23-1.06-0.6-1.42
	c-0.36-0.36-0.86-0.59-1.42-0.59c-1.11,0.01-2.01,0.91-2,2.02l-1.72,13.37c0,1.11-0.89,2.01-2,2.02l-13.51,1.78
	C678.86,253.27,677.96,254.17,677.96,255.28z M587.94,123.99l34.17,4.33c2.81,0,5.09,2.26,5.09,5.07l4.52,33.77
	c0.01,2.79,2.28,5.06,5.08,5.06c0.01,0,0.01,0,0.02,0c2.8,0,5.07-2.29,5.07-5.09l4.33-33.79c-0.01-2.81,2.26-5.09,5.06-5.1
	l34.15-4.52c2.8,0,5.07-2.29,5.06-5.09v-0.75c-0.01-2.81-2.29-5.08-5.09-5.07l-34.17-4.33c-2.81,0.01-5.09-2.26-5.09-5.07
	l-4.52-33.76c-0.01-2.8-2.28-5.07-5.08-5.07c-0.01,0-0.01,0-0.02,0c-2.8,0.01-5.07,2.29-5.07,5.09l-4.33,33.79
	c0.01,2.81-2.26,5.09-5.07,5.1l-34.14,4.52c-2.8,0.01-5.07,2.29-5.06,5.09v0.76C582.86,121.73,585.14,124,587.94,123.99z
	 M707.69,645.89l-5.27-1.76c-1.78-0.5-3.1-1.07-3.97-1.71c-0.86-0.64-1.29-1.46-1.29-2.47c0-1.28,0.71-2.33,2.13-3.17
	c1.42-0.83,3.63-1.25,6.64-1.25c2.9,0,5.58,0.35,8.06,1.04c2.48,0.7,4.47,1.52,5.98,2.47c1.11-0.89,2.07-1.95,2.88-3.18
	c0.81-1.22,1.21-2.7,1.21-4.43c0-1.72-0.5-3.24-1.5-4.55c-1.01-1.31-2.4-2.38-4.18-3.22c-1.78-0.83-3.91-1.46-6.39-1.88
	c-2.48-0.41-5.14-0.62-7.98-0.62c-7.91,0-14.05,1.71-18.42,5.13c-4.38,3.43-6.56,7.98-6.56,13.66c0,2.96,0.49,5.45,1.46,7.48
	c0.97,2.04,2.33,3.79,4.05,5.27c1.73,1.47,3.8,2.73,6.23,3.76c2.42,1.03,5.08,2.04,7.98,3.05l4.26,1.42
	c1.95,0.66,3.45,1.37,4.51,2.13c1.06,0.75,1.59,1.79,1.59,3.13c0,1.34-0.67,2.55-2.01,3.63c-1.34,1.09-3.65,1.63-6.93,1.63
	c-3.18,0-6.13-0.54-8.86-1.63c-2.73-1.08-5.01-2.35-6.85-3.8c-1.34,0.73-2.58,1.77-3.72,3.14c-1.14,1.36-1.71,3.02-1.71,4.97
	c0,1.89,0.56,3.55,1.67,4.97s2.64,2.62,4.6,3.59c1.94,0.97,4.24,1.71,6.89,2.21c2.64,0.51,5.5,0.76,8.56,0.76
	c4.29,0,8.09-0.48,11.41-1.42c3.31-0.95,6.08-2.27,8.31-3.97c2.23-1.7,3.91-3.73,5.05-6.1c1.14-2.37,1.72-4.94,1.72-7.73
	c0-5.35-1.69-9.61-5.06-12.78C718.81,650.48,713.98,647.89,707.69,645.89z M510.76,667.94c-1.72,0.9-3.53,1.72-5.43,2.47
	c-1.89,0.75-4.2,1.13-6.93,1.13c-5.29,0-9.43-1.52-12.41-4.56c-2.98-3.03-4.47-7.53-4.47-13.49c0-5.74,1.37-10.19,4.1-13.37
	c2.73-3.17,6.68-4.76,11.86-4.76c2.62,0,4.9,0.39,6.85,1.17c1.95,0.78,3.82,1.75,5.6,2.92c1.11-0.72,2.1-1.72,2.97-3
	c0.86-1.28,1.29-2.79,1.29-4.52c0-3.17-1.69-5.76-5.05-7.77c-3.37-2-8.12-3-14.25-3c-4.34,0-8.42,0.71-12.24,2.13
	c-3.81,1.42-7.14,3.49-9.98,6.22c-2.84,2.73-5.09,6.1-6.73,10.11s-2.46,8.64-2.46,13.87c0,5.63,0.83,10.46,2.5,14.5
	c1.67,4.03,3.98,7.35,6.94,9.94c2.95,2.59,6.39,4.52,10.32,5.8c3.92,1.29,8.17,1.93,12.74,1.93c3.12,0,5.77-0.27,7.98-0.8
	c2.2-0.53,3.91-1.07,5.13-1.63c1.95-0.83,3.33-1.89,4.14-3.17c0.81-1.28,1.21-2.7,1.21-4.26c0-1.73-0.32-3.25-0.96-4.56
	C512.84,669.94,511.93,668.84,510.76,667.94z M446.6,669.2c1.34,4.79,2.51,9.02,3.51,12.7c-0.78,0.89-1.98,1.63-3.59,2.21
	c-1.62,0.59-3.51,0.88-5.68,0.88c-3.29,0-5.57-0.55-6.86-1.63c-1.28-1.09-2.2-2.8-2.75-5.14l-1.84-6.85h-18.13
	c-0.67,2.39-1.25,4.62-1.76,6.68c-0.5,2.06-1,4.01-1.5,5.85c-0.89,0.34-1.87,0.61-2.92,0.84c-1.06,0.22-2.31,0.33-3.76,0.33
	c-3.4,0-5.92-0.58-7.56-1.75c-1.65-1.17-2.47-2.79-2.47-4.85c0-0.95,0.14-1.89,0.42-2.84c0.28-0.95,0.58-2.03,0.92-3.26
	c0.44-1.84,1.08-4.1,1.92-6.81c0.84-2.7,1.75-5.61,2.76-8.73c1-3.12,2.07-6.29,3.21-9.52c1.15-3.23,2.22-6.3,3.22-9.19
	c1-2.9,1.92-5.5,2.76-7.81c0.83-2.32,1.47-4.08,1.92-5.31c1.17-0.67,2.89-1.3,5.18-1.88c2.28-0.58,4.59-0.88,6.93-0.88
	c3.35,0,6.31,0.48,8.9,1.42c2.59,0.95,4.25,2.51,4.97,4.68c1.23,3.4,2.54,7.41,3.93,12.03c1.39,4.63,2.78,9.39,4.18,14.29
	C443.9,659.56,445.26,664.41,446.6,669.2z M426.47,657.83c-0.95-3.84-1.9-7.44-2.84-10.81c-0.95-3.37-1.82-6.4-2.59-9.07h-0.59
	c-0.95,2.73-1.98,5.76-3.09,9.11c-1.12,3.34-2.23,6.93-3.34,10.77H426.47z M660.27,639.54c1.65,4.01,2.47,8.63,2.47,13.87
	c0,5.18-0.81,9.79-2.43,13.82c-1.61,4.04-3.84,7.43-6.68,10.15c-2.84,2.73-6.2,4.8-10.07,6.19c-3.87,1.39-8.09,2.09-12.65,2.09
	c-4.52,0-8.72-0.7-12.62-2.09c-3.9-1.39-7.24-3.47-10.03-6.23c-2.78-2.75-4.98-6.14-6.6-10.15c-1.61-4.01-2.42-8.6-2.42-13.78
	c0-5.24,0.82-9.86,2.47-13.87c1.64-4.01,3.88-7.37,6.72-10.07s6.18-4.76,10.03-6.18c3.84-1.42,7.99-2.13,12.45-2.13
	c4.51,0,8.68,0.71,12.53,2.13c3.84,1.42,7.2,3.48,10.06,6.18C656.37,632.17,658.63,635.53,660.27,639.54z M644.69,653.41
	c0-6.02-1.24-10.53-3.72-13.54c-2.48-3.01-5.83-4.51-10.06-4.51c-4.07,0-7.36,1.48-9.86,4.43c-2.51,2.95-3.76,7.49-3.76,13.62
	c0,6.07,1.24,10.61,3.71,13.62c2.48,3,5.81,4.51,9.99,4.51c4.18,0,7.5-1.51,9.98-4.51C643.45,664.02,644.69,659.48,644.69,653.41z
	 M581.7,674.38c0.89,1.28,1.64,2.42,2.25,3.42c-0.67,2.34-1.88,4.12-3.63,5.35c-1.76,1.22-3.75,1.84-5.98,1.84
	c-1.44,0-2.71-0.17-3.8-0.5c-1.08-0.34-2.03-0.81-2.84-1.42c-0.81-0.62-1.54-1.35-2.21-2.22c-0.67-0.86-1.28-1.79-1.84-2.8
	l-8.52-13.7h-5.35v19.55c-0.72,0.17-1.85,0.36-3.38,0.59c-1.53,0.22-3.11,0.33-4.72,0.33c-3.57,0-6.03-0.61-7.4-1.84
	c-1.36-1.22-2.04-3.39-2.04-6.51v-47.54c0-1.4,0.39-2.48,1.17-3.26c0.78-0.78,1.83-1.39,3.17-1.84c2.23-0.78,4.85-1.36,7.85-1.75
	c3.01-0.39,6.24-0.59,9.7-0.59c9.19,0,16.12,1.96,20.8,5.89s7.02,9.15,7.02,15.67c0,3.84-0.99,7.25-2.97,10.23
	c-1.98,2.98-4.58,5.42-7.81,7.31c1.22,1.78,2.49,3.47,3.8,5.06c1.31,1.58,2.53,3.12,3.68,4.59
	C579.79,671.72,580.8,673.1,581.7,674.38z M564.24,643.3c0-2.56-0.83-4.5-2.47-5.81c-1.64-1.31-4.25-1.96-7.81-1.96
	c-0.78,0-1.52,0.04-2.21,0.12c-0.7,0.09-1.41,0.18-2.14,0.3v15.03h5.02c2.78,0,5.08-0.65,6.89-1.96
	C563.33,647.71,564.24,645.8,564.24,643.3z M306.69,597.65c-7.54,1.38-18.62,3.7-21.77,5.77c-96.28,71.89-195.4,93.23-197.48,90.1
	c-0.97-1.47,16.46-8.7,35.37-16.02c-18.28,5.81-36.03,9.74-40.08,4.85c-9.01-10.85,20.47-18.13,21.5-20.87
	c1.04-2.74-20.67,3.96-25.75,1.86c-5.09-2.09-11.63-27.3-13.68-32.9c-2.05-5.61,15.16-9.11,17.34-10.09
	c-17.8,0.87-16.42-2.71-16.42-2.71s-3.91-3.01-4.73-17.08c-0.81-14.07,32.03-17.36,33.32-22.18c1.29-4.82-35.89,0.75-36.74-5.35
	c-0.86-6.11,26.74-5.03,31.14-6.78c4.39-1.75,3.08-2.89-14.19-3.08s-16.84-8.44-10.98-9.68c17.39-3.93,74.34-0.45,131.34,3.65
	c57,4.09,68.61,25.43,76.34,27.19c7.72,1.75,23.81-1.72,23.81-1.72l8.3-1.85l-0.01-0.02c0.06-0.01,0.26-0.04,0.61-0.11l0.65-0.14
	l0.45-0.1v0.01c0.12-0.03,0.24-0.05,0.37-0.08c20.97-4.21,155.11-31.35,268.8-65.91c114.33-34.75,153.45-98.88,152.21-143.25
	c-0.45-16.24-6.73-26.47-12.42-27.87c-7.15-1.73-13.02-1.1-17.94,1.96c-3.87,2.41-6.69,6.02-8.66,9.49
	c-0.07,0.12-0.13,0.23-0.19,0.35c-0.06,0.16-0.1,0.32-0.15,0.48c-0.37,1.17-0.75,2.38-1.16,3.65c-1.49,4.61-3.28,9.87-5.37,15.76
	c-2.9,8.19-6.38,17-10.44,26.39c-4.05,9.41-8.55,18.36-13.46,26.85c-4.92,8.48-10.19,15.8-15.83,21.97
	c-5.66,6.16-11.59,10.04-17.79,11.66c-5.54,1.43-11.4,1.54-17.58,0.28c-6.18-1.25-11.9-3.76-17.12-7.55
	c-5.02-3.62-9.31-8.48-12.85-14.59h-0.01c-1.61,3.91-3.27,7.69-4.98,11.35c-3.72,7.94-7.63,14.73-11.73,20.38
	c-4.11,5.65-8.04,8.96-11.81,9.94c-4.21,1.09-8.14,0.52-11.8-1.73c-3.67-2.24-6.88-5.3-9.64-9.16c-2.76-3.85-4.99-8.07-6.67-12.67
	c-1.68-4.59-2.67-8.79-2.95-12.61c-2.66,6.87-5.23,13.32-7.73,19.34c-2.51,6.02-4.82,11.32-6.98,15.88
	c-2.15,4.57-4.14,8.23-5.97,10.99c-1.83,2.77-3.42,4.32-4.73,4.66c-4.44,1.16-8.5,0.56-12.16-1.8c-3.67-2.36-6.89-5.58-9.67-9.67
	c-2.77-4.07-5.02-8.52-6.72-13.34c-1.7-4.81-2.68-9.02-2.94-12.61c-0.18-2.48,0.2-7.38,1.13-14.71c0.94-7.34,2.31-15.69,4.11-25.08
	c1.81-9.4,3.91-19.32,6.31-29.79c2.4-10.45,4.98-20.16,7.71-29.1c2.73-8.95,5.53-16.42,8.37-22.42c2.83-6,5.59-9.35,8.24-10.04
	c2.88-0.75,5.5-0.4,7.86,1.04s4.52,3.18,6.47,5.18c2.42,2.34,4.54,5.11,6.35,8.29c-2.88,3.96-5.69,10.06-8.48,18.33
	c-2.79,8.29-5.46,17.44-8,27.47c-2.55,10.05-4.85,20.31-6.92,30.8c-2.07,10.49-3.68,20.06-4.86,28.72
	c-1.19,8.66-1.85,15.69-2.02,21.11c-0.17,5.41,0.4,7.95,1.73,7.6c1.33-0.34,3.13-2.75,5.4-7.24c2.27-4.47,4.73-10.14,7.4-17.01
	c2.66-6.88,5.48-14.7,8.45-23.47c2.98-8.79,5.95-17.68,8.91-26.69c2.95-9,5.76-17.8,8.41-26.37c2.65-8.59,4.99-16.1,7-22.59
	c1.99-6.69,3.93-12.68,5.81-17.97l-0.03-0.34c2.27-6.08,4.46-11.05,6.54-14.91c2.09-3.85,4.25-6.08,6.46-6.67
	c2.87-0.73,5.49-0.39,7.85,1.05c2.37,1.44,4.53,3.17,6.48,5.18c2.42,2.35,4.54,5.1,6.35,8.29c-2.87,3.96-5.7,10.07-8.49,18.33
	c-2.78,8.28-5.45,17.44-8,27.48c-2.55,10.04-4.84,20.3-6.9,30.79c-2.07,10.48-3.69,20.06-4.87,28.71
	c-1.18,8.66-1.86,15.7-2.03,21.12c-0.17,5.41,0.41,7.95,1.74,7.61c2-0.53,4.18-2.98,6.58-7.38c2.38-4.4,4.81-9.83,7.28-16.3
	c2.46-6.48,5.04-13.66,7.75-21.58c1.19-3.49,2.33-6.94,3.42-10.35c0.19-3.81,0.58-7.85,1.21-12.12c1.22-8.22,2.98-16.62,5.28-25.23
	c2.32-8.6,5.15-17.05,8.49-25.37c3.35-8.3,6.92-15.81,10.74-22.52c3.78-6.7,7.79-12.32,11.97-16.84c4.19-4.52,8.16-7.27,11.94-8.25
	c11.96-3.11,21.01-2.67,27.16,1.32c6.16,4.01,10.15,9.95,11.96,17.83s1.9,16.88,0.26,27.03c-1.63,10.14-4.25,19.87-7.87,29.14
	c-3.62,9.31-7.94,17.4-12.97,24.32c-5.04,6.91-9.87,10.97-14.52,12.18c-5.1,1.33-9.45,1.27-13.05-0.2
	c-3.61-1.47-6.61-3.26-9.01-5.37c-0.64,6.8-0.87,13.15-0.66,19.04c0.2,5.9,0.96,10.91,2.27,15.02c1.32,4.11,3.17,7.18,5.58,9.18
	c2.39,2.02,5.58,2.49,9.58,1.46c4.2-1.11,8.39-4.03,12.56-8.76c4.17-4.76,8.21-10.55,12.11-17.4c3.91-6.85,7.6-14.34,11.07-22.44
	c3.48-8.11,6.62-16.08,9.44-23.9c1.74-4.81,3.33-9.46,4.79-13.94c0,0,0,0,0-0.01c0.39-1.17,0.75-2.33,1.11-3.47
	c0.34-0.95,0.73-1.99,1.2-3.09c0.06-0.16,0.13-0.32,0.2-0.48c2.29-5.57,6.29-12.93,12.86-18.69c0.08-0.08,0.16-0.15,0.25-0.22
	c1.38-1.19,2.89-2.33,4.52-3.35c8.9-5.59,19.35-6.97,31.08-4.12c14.78,3.6,24.74,20.84,25.38,43.9
	c0.45,16.06-3.37,48.28-34.04,83.59c-28.85,33.21-72.66,58.91-130.21,76.4c-107.58,32.71-228.51,57.81-265.01,65.22
	c-0.12,0.03-0.25,0.05-0.37,0.08c-3.86,0.79-6.21,1.44-6.89,1.63C306.82,597.63,306.75,597.64,306.69,597.65z M601.32,391.33
	c2.53,0.71,4.87,0.33,7.02-1.14c2.83-1.43,5.65-4.51,8.48-9.25c2.8-4.73,5.46-10.17,7.95-16.3c2.49-6.15,4.61-12.64,6.37-19.5
	c1.76-6.87,3.12-13.05,4.08-18.56c0.96-5.51,1.25-9.99,0.88-13.44c-0.36-3.46-1.53-4.93-3.53-4.4c-2.88,0.75-5.88,3.76-8.98,9.03
	c-3.13,5.27-6.15,11.79-9.09,19.52c-2.94,7.75-5.53,16.36-7.78,25.87C604.48,372.66,602.68,382.06,601.32,391.33z M89.43,596.02
	c-0.24-0.78-1.68-1.03-3.23-0.57c-1.55,0.47-2.61,1.48-2.37,2.27c0.23,0.78,1.68,1.04,3.23,0.57
	C88.61,597.82,89.67,596.8,89.43,596.02z M117.73,594.14c0.23,0.79,15.6-3.17,34.32-8.85c18.72-5.66,33.7-10.89,33.46-11.67
	c-0.24-0.79-15.6,3.17-34.32,8.84C132.47,588.13,117.49,593.36,117.73,594.14z M115.2,615.42c0.17,0.55,6.33-0.84,13.78-3.1
	c7.44-2.26,13.35-4.52,13.18-5.06c-0.16-0.55-6.34,0.84-13.78,3.1C120.94,612.62,115.04,614.88,115.2,615.42z M143.67,622.11
	c-0.49-1.62-7.52-0.91-15.71,1.57c-8.19,2.48-14.42,5.8-13.94,7.41c0.49,1.6,7.52,0.91,15.71-1.57
	C137.91,627.03,144.16,623.72,143.67,622.11z M172.69,642.87c-0.17-0.55-6.94,1.03-15.13,3.5c-8.18,2.49-14.68,4.94-14.52,5.48
	c0.17,0.55,6.93-1.03,15.12-3.5C166.35,645.87,172.85,643.41,172.69,642.87z M198.8,608.98c-0.34-0.8-9.83,2.49-21.21,7.34
	c-11.37,4.84-20.32,9.41-19.98,10.2c0.34,0.8,9.83-2.49,21.21-7.34C190.19,614.34,199.14,609.77,198.8,608.98z M242.47,595.55
	c-0.46-1.52-3.27-2.01-6.28-1.1c-3.01,0.91-5.08,2.88-4.62,4.41c0.46,1.52,3.28,2.01,6.29,1.1
	C240.86,599.05,242.93,597.08,242.47,595.55z M87.08,249.2c0,0-7.13-87.56,33.91-95.55c31.72-6.2,94.28,25.47,126.07,45.38
	c0.44,0.27,0.85,0.53,1.28,0.81c8.69,5.5,13.67,6.94,17.22,12.46c1.81,3.18,5.87,15.69,2.44,31.45
	c-2.06,9.48-6.88,20.15-16.52,30.67c-7.91,8.62-15.94,14.72-23.27,19.02c-12.49,7.33-22.94,9.47-27.22,10.07
	c-0.91-0.18-1.82-0.4-2.7-0.67l0.63,0.9c0,0,0.72-0.04,2.07-0.23c6.86,1.39,14.76,0.53,22.94-2.32
	c11.78-4.13,24.15-12.45,34.71-24.23c11.97-13.37,19.24-28.53,21.17-41.97c1.78-12.22-0.84-23.01-8.33-29.72
	c-5.64-5.05-11.11-8.23-19.62-7.64c31.49-24.1,57.81-33.07,70.22-21.95c8.89,7.97,7.87,25.32-0.98,47.02
	c-1.7,4.16-3.69,8.48-5.95,12.93c2.02-0.03,4,0.02,5.93,0.15c8.21,0.57,15.54,2.45,21.96,5.64c6.43,3.18,11.76,7.51,15.96,12.98
	c4.2,5.48,7.13,11.85,8.79,19.13c1.25,5.68,1.16,15.28-0.25,28.79c-1.43,13.5-3.49,28.76-6.2,45.75
	c-2.72,16.99-5.76,34.5-9.11,52.51c-3.34,18.02-6.31,34.5-8.89,49.46s-4.52,27.18-5.8,36.65c-1.29,9.48-1.1,14,0.56,13.57
	c3.87-1.01,8.89-5.67,15.05-14c6.16-8.31,12.71-19.09,19.65-32.33c6.93-13.22,13.93-28.55,20.98-45.96
	c7.06-17.41,13.3-35.52,18.69-54.36c5.41-18.83,9.52-37.98,12.34-57.43c2.82-19.44,3.6-38,2.32-55.66
	c-1-13.75-2.99-23.72-5.98-29.95c-2.98-6.22-6.11-10.48-9.37-12.77c-3.28-2.29-6.2-3.74-8.78-4.36c-2.58-0.61-3.97-2.32-4.17-5.13
	c-0.16-2.23,2.66-4.12,8.46-5.63c4.71-1.23,10.61-1.4,17.72-0.54c7.11,0.87,14.17,3.88,21.17,9.05
	c6.99,5.19,13.22,13.21,18.66,24.07c5.43,10.88,8.84,25.84,10.22,44.91c1.18,16.27-0.43,34.04-4.81,53.32
	c-4.39,19.29-10.3,38.83-17.75,58.62c-7.45,19.8-16,39.02-25.63,57.67c-9.65,18.66-19.16,35.28-28.53,49.86
	c-9.38,14.59-18.1,26.57-26.16,35.95s-14.31,14.66-18.72,15.81c-3.05,0.79-7.14,0.71-12.28-0.23c-5.14-0.95-10.45-3.14-15.91-6.57
	c-5.47-3.44-10.53-8.26-15.21-14.47c-4.68-6.2-8.08-14.18-10.18-23.91c-1.23-5.12-1.48-12.48-0.76-22.09
	c0.71-9.62,1.97-20.44,3.79-32.49c1.79-12.03,3.97-24.81,6.52-38.34c2.54-13.51,5.12-26.61,7.73-39.29
	c2.6-12.68,5.05-24.6,7.35-35.78c2.29-11.16,4.02-20.33,5.2-27.49c1.98-11.37,1.55-20.26-1.3-26.66c-2.86-6.39-7.06-8.87-12.59-7.43
	c-8.3,2.15-16.37,8.47-24.2,18.95c-7.85,10.47-14.67,22.38-20.47,35.75c-5.8,13.37-10.18,26.8-13.14,40.28
	c-2.98,13.49-3.61,24.29-1.89,32.42c-6.41,1.09-12.19,1.02-17.35-0.2c-4.57-0.8-8.94-2.67-13.09-5.59
	c-4.16-2.92-7.04-7.73-8.65-14.46c-1.19-4.75-1.1-10.8,0.28-18.16c-4.73,3.19-9.36,6.01-13.83,8.44
	c-20.66,11.24-37.87,14.19-46.79,6.21c-13.74-12.31-3.82-47.03,22.07-85.5l-2.69-3.88c0,0-32.9-35.24-35.12-40.27
	c-2.23-5.02-2.13-7.35-2.13-7.35s-4.28-0.46-4.73-3.44c-0.3-1.97,1.67-5.52,1.67-5.52s-2.2-4.07-5.83-3.35
	c-3.65,0.72-8.22-0.15-8.06-3.16C122.05,204.83,101.93,221.56,87.08,249.2z M106.55,176.07c6.83-3.55,12.62-6.39,21.95-5.02
	c47.43,9.83,109.03,59.67,111.25,62.1c2.23,2.42,11.96,11.8,14.39,9.57c2.42-2.22,3.72-10.87,3.07-17.8
	c-0.67-6.93-1.46-7.29-8.72-12.71c-16.25-15.4-100.04-47.07-114.69-48.71C119.14,161.84,106.55,176.07,106.55,176.07z"/>
</svg>
